<?xml version="1.0" standalone="no"?>
<!DOCTYPE svg PUBLIC "-//W3C//DTD SVG 20010904//EN"
 "http://www.w3.org/TR/2001/REC-SVG-20010904/DTD/svg10.dtd">
<svg version="1.0" xmlns="http://www.w3.org/2000/svg"
 width="523.000000pt" height="596.000000pt" viewBox="0 0 523.000000 596.000000"
 preserveAspectRatio="xMidYMid meet">

<g transform="translate(0.000000,596.000000) scale(0.100000,-0.100000)"
fill="#000000" stroke="none">
<path d="M2735 5943 c-32 -4 -89 -28 -113 -47 -64 -50 -90 -88 -106 -153 -15
-62 -20 -69 -41 -68 -13 1 -30 6 -37 11 -7 6 -30 19 -51 29 -21 11 -47 28 -57
38 -11 9 -35 17 -55 17 -31 0 -45 -8 -89 -52 -52 -52 -86 -124 -70 -149 4 -7
-11 -9 -49 -4 -51 7 -92 0 -152 -26 -11 -5 -30 -10 -42 -12 -21 -3 -56 -26
-108 -72 -13 -11 -47 -40 -76 -65 -29 -25 -70 -70 -93 -100 -22 -30 -43 -57
-46 -60 -7 -6 -40 -57 -62 -95 -26 -45 -78 -157 -78 -169 0 -4 -7 -23 -16 -44
-21 -45 -20 -44 -39 -117 -11 -47 -15 -130 -16 -375 0 -173 -4 -369 -8 -435
-5 -86 -4 -124 5 -135 6 -8 14 -32 17 -53 4 -24 16 -48 32 -63 20 -19 25 -31
21 -49 -3 -13 -2 -25 4 -27 5 -2 11 -19 14 -38 8 -62 18 -100 26 -100 5 0 11
-13 15 -30 4 -16 11 -30 16 -30 5 0 9 -9 9 -20 0 -11 4 -20 8 -20 9 0 37 -109
30 -115 -1 -1 -23 -6 -47 -9 -39 -5 -110 -46 -119 -68 -2 -4 -12 -8 -21 -8
-18 0 -101 -81 -101 -99 0 -6 -8 -25 -18 -43 -10 -18 -17 -39 -15 -45 3 -7 0
-13 -5 -13 -6 0 -13 -13 -17 -30 -4 -16 -11 -32 -16 -35 -5 -4 -9 -30 -9 -59
0 -88 -9 -116 -37 -116 -13 0 -26 -7 -29 -15 -3 -8 -21 -19 -39 -25 -18 -6
-45 -21 -59 -33 -14 -12 -47 -31 -73 -41 -27 -11 -54 -28 -61 -38 -7 -10 -26
-18 -41 -18 -16 0 -31 -7 -35 -15 -3 -8 -12 -15 -20 -15 -7 0 -16 -7 -20 -15
-3 -9 -18 -15 -35 -15 -20 0 -34 -7 -41 -20 -6 -11 -16 -20 -22 -20 -12 0
-119 -50 -128 -60 -7 -7 -41 -28 -60 -37 -21 -10 -40 -30 -40 -42 0 -6 -9 -15
-20 -21 -11 -6 -20 -15 -20 -21 0 -6 -13 -22 -28 -37 -47 -44 -96 -113 -127
-177 -16 -33 -33 -61 -37 -63 -4 -2 -8 -12 -8 -23 0 -10 -4 -19 -9 -19 -5 0
-12 -13 -16 -29 -3 -16 -12 -35 -20 -41 -8 -6 -17 -25 -20 -41 -4 -16 -11 -29
-16 -29 -5 0 -9 -9 -9 -19 0 -11 -5 -23 -10 -26 -6 -4 -8 -11 -5 -16 4 -5 1
-9 -4 -9 -6 0 -11 -8 -11 -18 0 -10 -4 -22 -8 -27 -5 -6 -16 -28 -25 -50 -12
-34 -13 -45 -2 -65 12 -23 13 -23 34 25 11 26 21 53 21 61 0 7 4 15 9 19 5 3
12 19 16 35 4 17 14 38 23 47 9 9 17 19 17 22 3 31 32 114 42 118 7 3 15 20
19 39 3 19 10 34 15 34 5 0 12 8 16 18 3 9 14 28 23 42 9 14 22 39 27 55 10
30 81 108 114 126 10 5 19 19 21 31 2 15 13 24 36 30 17 5 32 15 32 23 0 8 18
27 40 41 22 15 40 31 40 35 0 5 9 9 20 9 11 0 20 4 20 10 0 5 16 12 35 16 20
3 40 15 46 25 5 11 14 17 19 14 5 -3 11 -1 15 5 3 5 17 10 30 10 12 0 25 7 29
15 3 9 18 15 40 15 26 0 35 5 39 21 4 16 11 20 26 16 11 -3 25 1 32 9 6 8 18
14 25 14 8 0 14 5 14 10 0 6 6 10 14 10 8 0 21 6 28 13 23 22 91 50 136 55 50
5 67 -10 77 -70 4 -21 11 -38 15 -38 5 0 14 -17 20 -37 7 -21 30 -64 51 -97
22 -32 39 -61 39 -65 1 -3 14 -22 30 -41 17 -19 30 -41 30 -49 0 -8 7 -21 15
-30 83 -91 124 -129 143 -135 29 -10 28 -17 -8 -51 -16 -16 -30 -35 -30 -42 0
-8 -7 -16 -15 -19 -8 -4 -15 -17 -15 -30 0 -13 -4 -24 -9 -24 -5 0 -15 -29
-22 -65 -7 -36 -16 -65 -19 -65 -4 0 -10 -21 -14 -47 -4 -27 -12 -73 -18 -103
-7 -36 -12 -288 -15 -732 l-4 -677 30 -16 c17 -8 32 -15 36 -15 3 0 5 310 5
689 0 449 3 692 10 696 5 3 10 17 10 31 0 13 6 24 13 24 8 0 11 15 9 50 -2 28
0 56 6 63 5 7 13 38 16 69 4 32 11 60 16 63 4 3 11 20 14 38 5 27 49 83 52 67
0 -3 8 1 17 9 14 11 18 11 23 -4 4 -9 31 -41 60 -72 30 -30 54 -58 54 -62 0
-3 29 -36 64 -73 35 -36 67 -74 71 -85 5 -10 9 -389 9 -843 l1 -824 38 -9 c21
-5 40 -7 43 -5 2 3 4 359 4 791 0 743 3 832 26 772 4 -8 12 -15 20 -15 8 0 14
-6 14 -13 0 -8 14 -33 30 -56 33 -46 37 -62 50 -201 5 -52 14 -96 19 -98 6 -2
11 -13 11 -25 1 -12 9 -47 20 -77 11 -30 19 -67 20 -83 0 -15 4 -35 9 -45 13
-26 41 -181 41 -229 0 -24 4 -43 8 -43 4 0 14 -51 21 -112 7 -62 17 -131 21
-153 5 -22 12 -114 15 -205 7 -216 13 -268 34 -275 33 -10 348 -26 421 -21 41
3 120 8 175 11 177 10 486 75 700 148 203 69 372 148 582 271 l122 71 1 47 c0
25 -4 48 -9 50 -5 1 -11 29 -13 60 -1 32 -6 58 -10 58 -5 0 -8 29 -8 64 0 49
-4 65 -16 70 -11 4 -14 14 -9 35 4 20 2 30 -8 34 -9 3 -17 29 -21 69 -4 34
-11 67 -15 73 -11 14 -36 88 -33 99 2 4 -2 14 -7 20 -6 7 -15 37 -22 67 -12
62 -30 109 -41 109 -5 0 -8 11 -8 25 0 47 -54 158 -92 190 -26 22 -28 27 -19
64 5 23 6 41 3 41 -3 0 -1 5 6 12 7 7 12 20 12 29 0 9 7 19 15 23 8 3 12 12 9
21 -3 8 -1 15 5 15 6 0 11 9 11 19 0 11 5 23 10 26 6 3 10 15 10 26 0 11 20
40 45 65 25 24 45 48 45 53 0 5 8 11 18 13 10 3 18 15 19 29 2 24 41 61 55 53
4 -3 8 -14 8 -25 0 -10 6 -19 13 -19 15 0 49 -52 67 -100 7 -19 26 -64 44
-100 17 -36 31 -69 31 -75 1 -5 7 -21 15 -35 7 -14 12 -25 11 -25 -3 0 9 -35
25 -72 8 -17 14 -35 14 -40 1 -4 9 -26 20 -48 11 -22 19 -45 20 -51 0 -7 7
-25 15 -40 8 -16 15 -37 15 -46 0 -10 4 -18 9 -18 5 0 12 -18 16 -40 4 -22 11
-42 16 -46 5 -3 9 -13 9 -22 0 -9 7 -30 15 -46 8 -15 15 -37 15 -47 0 -11 4
-19 9 -19 6 0 10 -8 10 -17 0 -10 11 -56 25 -102 14 -46 26 -91 26 -102 0 -10
5 -21 10 -24 6 -3 10 -16 10 -29 0 -12 3 -26 7 -29 12 -13 43 26 43 52 -1 28
-21 109 -31 126 -4 6 -10 30 -14 55 -4 25 -11 50 -15 55 -4 6 -18 44 -31 85
-13 41 -26 77 -30 80 -3 3 -14 36 -24 73 -10 38 -24 71 -32 74 -7 3 -13 14
-13 24 0 11 -4 27 -9 37 -12 23 -25 57 -46 114 -9 26 -21 50 -26 53 -5 4 -9
16 -9 29 0 12 -4 26 -8 31 -5 6 -14 29 -21 53 -6 23 -17 42 -22 42 -6 0 -9 7
-5 15 7 18 -81 191 -114 225 -53 54 -53 54 -29 106 13 27 26 51 29 54 13 11
33 92 34 135 1 40 4 45 28 50 19 5 36 0 57 -16 17 -13 31 -26 31 -30 0 -3 14
-9 31 -13 17 -3 58 -24 91 -46 33 -22 63 -40 67 -40 15 0 72 -64 67 -76 -3 -7
7 -24 22 -37 27 -23 33 -33 75 -109 12 -22 32 -56 44 -76 13 -20 25 -45 29
-54 3 -10 10 -18 15 -18 5 0 9 -8 9 -19 0 -10 7 -24 15 -31 8 -7 13 -16 10
-20 -3 -5 -1 -11 4 -15 6 -3 8 -12 5 -20 -4 -8 1 -18 10 -21 9 -3 16 -14 16
-23 0 -9 5 -22 12 -29 7 -7 9 -12 4 -12 -4 0 2 -12 13 -26 12 -15 21 -31 21
-36 0 -5 8 -28 19 -51 30 -69 34 -81 32 -94 -1 -7 3 -13 9 -13 5 0 10 -9 10
-20 0 -11 5 -20 11 -20 6 0 9 -7 5 -15 -3 -8 -2 -15 2 -15 10 0 32 -51 26 -61
-3 -5 -1 -9 5 -9 15 0 24 41 12 53 -6 6 -11 17 -11 24 0 7 -11 31 -24 52 -14
21 -28 55 -32 75 -3 20 -11 42 -18 49 -6 7 -11 17 -12 22 -1 21 -45 105 -55
105 -6 0 -9 6 -6 13 2 6 -1 23 -8 37 -27 53 -84 177 -99 212 -8 21 -22 38 -30
38 -9 0 -16 8 -16 19 0 10 -7 24 -15 31 -8 7 -15 18 -15 24 0 6 -13 26 -30 44
-16 18 -30 40 -30 48 0 8 -4 14 -10 14 -5 0 -10 6 -10 14 0 8 -13 23 -30 33
-16 9 -30 21 -30 25 0 4 -4 8 -9 8 -5 0 -37 18 -71 41 -34 23 -67 42 -74 43
-23 3 -76 41 -76 53 0 7 -10 13 -23 13 -12 0 -28 9 -35 20 -9 15 -23 20 -52
20 -27 0 -43 5 -46 15 -4 8 -15 15 -25 15 -10 0 -25 13 -34 30 -9 16 -19 30
-24 30 -15 0 -51 37 -51 54 0 9 -3 16 -8 16 -4 0 -22 14 -41 30 -18 17 -45 37
-61 45 -16 8 -35 23 -42 32 -15 21 -93 73 -108 73 -5 0 -10 3 -10 8 0 8 -48
32 -63 32 -6 0 -15 7 -21 16 -7 9 -28 19 -46 23 -28 5 -36 12 -38 33 -2 14 4
32 12 41 9 9 16 24 16 34 0 11 9 38 20 61 11 22 20 49 20 58 0 32 24 139 33
145 8 6 9 214 2 314 -2 28 -4 65 -4 83 -1 20 -6 32 -15 32 -11 0 -15 43 -18
243 -2 133 0 244 4 245 5 2 8 17 8 32 0 16 7 33 15 38 9 4 19 21 24 38 5 19
15 30 28 32 19 3 21 8 17 48 l-4 45 26 -20 c31 -25 54 -27 54 -6 0 10 10 15
30 15 38 0 41 30 7 64 -13 13 -29 39 -36 57 -7 19 -20 52 -29 74 -10 22 -16
44 -14 48 1 5 -3 19 -11 31 -8 11 -17 38 -20 59 l-6 38 68 -6 c57 -5 69 -4 74
9 4 10 18 16 37 16 20 0 30 5 30 15 0 8 -6 15 -14 15 -8 0 -21 6 -28 13 -7 6
-26 19 -43 27 -16 8 -58 43 -93 78 -35 34 -68 62 -73 62 -5 0 -9 11 -9 25 0
13 -6 28 -12 32 -11 7 -33 46 -52 93 -3 8 -15 29 -26 45 -11 17 -28 48 -39 70
-10 22 -28 50 -38 62 -10 11 -25 31 -33 42 -8 12 -18 21 -22 21 -3 0 -33 26
-65 58 -70 69 -139 116 -160 108 -17 -7 -8 -26 13 -26 8 0 23 -8 33 -17 11
-10 40 -36 65 -58 25 -21 46 -45 46 -52 0 -7 5 -13 11 -13 11 0 59 -46 59 -56
0 -3 14 -18 30 -34 17 -16 30 -36 30 -44 0 -8 9 -21 20 -29 11 -8 17 -16 14
-19 -3 -3 6 -23 21 -43 14 -21 25 -48 25 -61 0 -13 5 -24 10 -24 6 0 10 -7 10
-15 0 -8 4 -15 9 -15 5 0 12 -12 16 -27 8 -34 157 -178 210 -205 l40 -19 -52
4 c-39 3 -68 14 -117 45 -36 22 -68 37 -71 32 -3 -6 13 -27 36 -49 l42 -39
-31 -7 c-18 -3 -32 -11 -32 -16 0 -5 -6 -9 -13 -9 -8 0 -32 -13 -53 -28 -55
-40 -68 -43 -170 -46 l-92 -2 -16 33 c-9 18 -34 53 -56 77 -22 24 -40 46 -40
50 0 14 -34 41 -54 44 -60 7 -148 4 -154 -4 -17 -26 -40 -21 -70 14 -72 87
-65 84 -161 80 -101 -4 -107 0 -153 98 -16 35 -34 67 -39 70 -5 3 -26 -9 -46
-26 -25 -23 -39 -28 -46 -21 -6 6 -19 11 -28 11 -9 0 -22 7 -29 15 -16 20 -77
18 -114 -3 -16 -10 -36 -31 -45 -47 -37 -67 -73 -117 -115 -159 -25 -24 -43
-46 -40 -48 2 -3 -3 -5 -11 -5 -8 0 -12 4 -10 8 6 9 -24 21 -36 13 -13 -8 -12
-3 17 83 38 112 46 173 24 173 -5 0 -10 -10 -10 -22 0 -13 -7 -36 -15 -52 -8
-15 -15 -34 -15 -42 0 -7 -11 -38 -25 -69 -25 -55 -26 -55 -69 -55 -55 0 -76
-8 -76 -27 0 -8 -7 -31 -16 -51 -38 -86 -44 -100 -44 -107 0 -4 -9 -19 -20
-35 -16 -23 -30 -29 -77 -35 -69 -8 -99 -27 -115 -71 -6 -18 -17 -35 -24 -38
-46 -18 -94 50 -94 132 0 62 -20 84 -50 57 -11 -10 -20 -26 -20 -36 0 -10 -15
-33 -34 -51 -18 -18 -36 -45 -40 -60 -6 -25 -10 -27 -47 -24 -22 2 -42 6 -43
8 -13 21 -62 85 -70 93 -21 19 -34 71 -23 91 6 11 12 24 12 29 1 6 4 17 7 25
3 8 14 42 24 75 10 33 22 64 26 70 4 5 8 15 8 23 0 8 9 27 21 43 11 16 17 33
14 39 -3 5 -1 10 4 10 6 0 11 7 11 15 0 8 5 15 10 15 6 0 10 6 9 13 -3 25 2
35 41 77 22 24 40 47 40 52 0 16 74 98 87 98 7 0 13 6 13 13 0 6 20 25 45 40
25 16 48 34 53 41 10 18 60 49 102 63 19 7 74 16 123 20 75 5 90 4 106 -11 26
-23 45 -12 30 16 -6 11 -9 44 -7 73 4 43 10 58 37 84 18 17 36 29 41 26 4 -3
10 2 14 10 3 8 16 15 30 15 24 0 148 -58 154 -72 2 -5 9 -8 16 -8 7 0 22 -11
34 -25 12 -14 26 -25 31 -25 9 0 31 84 31 119 0 25 37 106 48 106 4 0 19 12
33 26 33 35 82 58 113 52 15 -3 26 -1 26 6 0 18 175 15 190 -4 7 -8 23 -15 36
-15 13 0 24 -3 24 -7 0 -10 49 -33 68 -33 7 0 11 -4 7 -9 -3 -6 10 -17 30 -27
33 -15 35 -19 35 -65 0 -42 -3 -49 -20 -49 -11 0 -20 -6 -20 -14 0 -15 21 -26
51 -26 10 0 19 -4 19 -10 0 -5 12 -10 26 -10 14 0 48 -11 76 -25 27 -14 54
-25 60 -25 5 0 16 -7 24 -15 15 -14 44 -10 44 6 0 5 -8 12 -17 15 -18 6 -30
11 -90 45 -18 10 -40 19 -48 19 -8 0 -15 4 -15 9 0 5 -10 11 -22 13 -15 2 -22
11 -23 28 -5 79 -16 106 -52 126 -20 10 -41 24 -47 29 -6 6 -28 19 -48 28 -20
10 -40 22 -43 27 -3 6 -17 10 -30 10 -13 0 -27 5 -30 10 -6 10 -146 12 -210 3z
m-52 -950 c37 -131 81 -216 146 -281 46 -46 58 -53 81 -48 24 4 30 1 40 -25
15 -34 34 -47 102 -64 41 -11 55 -11 105 5 44 13 59 23 61 39 4 27 31 27 79
-1 76 -44 127 -68 144 -68 10 0 21 -4 24 -10 4 -6 -45 -10 -139 -10 -90 0
-146 -4 -146 -10 0 -5 -10 -9 -21 -7 -15 1 -27 -7 -39 -28 -9 -16 -26 -31 -38
-33 -14 -2 -22 -11 -22 -23 0 -10 -6 -19 -14 -19 -10 0 -16 -13 -18 -37 l-3
-38 -110 0 -110 0 -1 40 c-1 21 -6 41 -13 43 -6 2 -11 10 -11 17 0 8 -9 19
-20 25 -11 6 -20 17 -20 25 0 8 -9 19 -20 25 -11 6 -20 17 -20 25 0 8 -9 15
-20 15 -11 0 -23 7 -26 15 -5 13 -39 15 -215 15 -179 0 -209 -2 -209 -15 0
-14 -5 -17 -40 -19 -8 -1 -16 -11 -18 -23 -2 -15 -10 -23 -24 -23 -12 0 -22
-8 -25 -20 -3 -11 -10 -19 -17 -18 -21 4 -106 -13 -106 -22 0 -5 -15 -12 -32
-15 -18 -4 -40 -13 -48 -20 -24 -20 -72 -28 -81 -13 -12 18 -11 38 1 38 6 0
23 13 38 29 93 99 132 143 132 152 0 6 11 34 24 62 13 29 27 63 31 77 4 14 16
41 26 60 11 19 19 43 19 52 0 15 9 18 50 18 28 0 50 -3 50 -6 0 -13 -91 -193
-100 -199 -13 -8 -13 -45 1 -45 5 0 8 4 5 9 -4 5 2 7 12 4 12 -3 31 10 58 37
21 23 56 60 77 81 20 22 37 44 37 49 0 6 4 10 9 10 5 0 20 17 32 38 30 48 69
90 69 74 0 -23 -85 -192 -96 -192 -11 0 -44 -42 -44 -55 0 -3 19 -5 43 -5 48
0 137 27 137 41 0 5 17 9 38 10 57 2 87 13 84 32 -2 9 2 17 8 17 5 0 10 5 10
10 0 6 -25 10 -55 10 -55 0 -55 0 -44 23 7 12 15 24 19 27 12 7 76 149 91 198
9 32 17 42 34 42 18 0 25 -13 48 -97z m833 -333 c30 -59 81 -130 101 -143 15
-9 6 -37 -13 -37 -8 0 -14 6 -14 14 0 8 -13 17 -30 21 -30 7 -63 41 -54 57 3
4 0 8 -5 8 -6 0 -11 6 -11 14 0 7 -7 27 -15 42 -8 16 -15 36 -15 45 0 9 -3 19
-7 23 -4 3 -8 14 -9 23 -2 9 -6 28 -9 42 -5 22 -1 19 23 -14 16 -22 42 -65 58
-95z m-876 -168 c0 -14 45 -62 58 -62 7 0 12 -7 12 -15 0 -8 7 -15 15 -15 13
0 15 -23 15 -150 0 -132 -2 -152 -18 -168 -10 -10 -26 -21 -35 -25 -9 -3 -17
-16 -17 -28 0 -17 -5 -20 -25 -17 -21 4 -25 1 -25 -18 l0 -24 -185 0 c-178 0
-185 1 -185 20 0 15 -7 20 -25 20 -20 0 -25 5 -25 25 0 18 -5 25 -20 25 -15 0
-20 7 -20 29 0 16 -7 48 -15 71 -29 84 -18 130 31 130 l34 0 0 -69 c0 -43 5
-72 13 -79 9 -8 12 10 12 86 0 86 2 97 18 100 18 4 19 -4 15 -112 l-3 -116 76
0 c45 0 80 5 87 12 8 8 12 48 12 115 l0 103 50 0 c49 0 50 -1 50 -30 0 -20 5
-30 15 -30 10 0 15 10 15 30 0 17 5 30 13 30 14 0 39 49 31 61 -3 5 -13 9 -23
9 -10 0 -28 9 -41 20 -30 26 -44 26 -28 0 7 -11 27 -26 45 -32 51 -18 29 -27
-29 -11 -39 10 -97 13 -215 11 -103 -2 -164 1 -165 7 -2 6 7 11 18 13 16 2 21
8 17 23 -4 15 0 22 16 26 12 3 21 13 21 24 0 18 11 19 205 19 113 0 205 -4
205 -8z m1014 -26 c-1 -9 4 -16 12 -16 8 0 14 -8 14 -17 0 -14 -4 -12 -25 7
-26 25 -34 55 -12 47 6 -2 11 -12 11 -21z m-164 -16 c0 -5 8 -10 19 -10 10 0
37 -18 60 -40 22 -22 38 -40 34 -40 -4 0 -2 -5 5 -12 15 -15 17 -308 2 -308
-5 0 -10 -9 -10 -20 0 -20 -11 -29 -47 -34 -12 -2 -17 -11 -16 -25 3 -21 0
-21 -167 -21 -161 0 -170 1 -170 19 0 14 -8 21 -27 23 -17 2 -29 10 -31 21 -2
10 -15 30 -28 44 -23 24 -25 34 -22 107 3 78 4 81 26 78 16 -2 25 4 32 22 6
17 17 26 31 26 20 0 21 -4 18 -97 -3 -86 -1 -98 14 -101 9 -2 17 -10 17 -18 0
-10 15 -14 60 -14 l59 0 3 118 3 117 40 0 39 0 -3 -90 c-2 -67 2 -95 12 -110
15 -19 16 -19 36 -1 18 17 21 30 21 113 l0 93 -25 -6 c-21 -5 -25 -3 -25 14 0
27 -68 45 -173 46 -56 1 -76 4 -73 13 4 9 -1 10 -20 1 -15 -7 -23 -17 -20 -25
4 -8 1 -11 -5 -7 -6 3 -21 -4 -34 -16 l-23 -21 -5 33 c-3 22 0 37 9 44 8 6 14
19 14 28 0 9 8 16 20 16 13 0 20 7 20 18 0 10 3 22 7 25 11 11 323 8 323 -3z
m-1406 -31 c-3 -5 -10 -7 -15 -3 -5 3 -7 10 -3 15 3 5 10 7 15 3 5 -3 7 -10 3
-15z m-34 -174 c0 -138 1 -145 20 -145 16 0 20 -7 20 -31 0 -22 5 -32 20 -36
11 -3 20 -12 20 -19 0 -8 7 -17 15 -20 8 -4 15 -15 15 -25 0 -13 7 -19 21 -19
12 0 23 -8 26 -19 6 -25 56 -31 264 -31 139 0 170 3 183 16 9 8 16 19 16 24 0
5 10 10 23 12 14 2 23 11 25 24 2 12 12 24 23 27 13 3 19 14 19 31 0 19 5 26
20 26 18 0 20 7 20 64 0 35 3 78 6 95 l7 31 88 0 c79 0 88 -2 94 -20 3 -11 13
-20 21 -20 11 0 14 -20 14 -98 l0 -98 40 -37 c22 -20 40 -39 40 -43 0 -11 34
-33 52 -34 9 0 18 -4 20 -9 4 -11 319 -16 368 -5 36 7 80 40 80 60 0 7 9 14
20 17 11 3 20 12 20 21 0 9 7 16 15 16 9 0 20 12 25 26 7 19 16 25 33 22 22
-3 22 -5 25 -177 1 -110 -1 -178 -8 -185 -5 -5 -10 -18 -10 -27 0 -9 -9 -34
-19 -56 -11 -21 -25 -53 -31 -70 -7 -18 -16 -33 -21 -33 -5 0 -9 -13 -9 -29 0
-16 -6 -31 -15 -35 -8 -3 -15 -16 -15 -30 0 -28 -17 -63 -45 -92 -11 -11 -34
-37 -52 -57 -25 -30 -38 -37 -68 -37 -28 0 -38 5 -42 20 -3 11 -11 20 -18 20
-9 0 -14 34 -17 129 -4 132 -12 161 -47 161 -9 0 -25 13 -35 29 -12 17 -26 27
-36 24 -9 -2 -22 3 -29 11 -8 9 -20 16 -28 16 -8 0 -21 6 -29 14 -9 9 -26 12
-52 9 -27 -4 -43 -1 -54 11 -12 11 -35 16 -82 16 l-66 0 0 -65 c0 -36 4 -65 9
-65 5 0 13 -9 16 -20 5 -17 15 -20 60 -20 30 0 55 -5 57 -11 5 -14 79 -40 96
-34 7 3 29 -2 48 -10 l34 -14 0 -89 c0 -82 -2 -90 -25 -112 -14 -13 -25 -29
-25 -37 0 -7 -16 -30 -35 -50 -19 -20 -35 -42 -35 -48 0 -8 -21 -10 -62 -7
-83 5 -88 7 -88 39 0 17 -13 43 -33 66 -32 38 -33 38 -102 35 -60 -3 -71 -6
-81 -25 -6 -13 -18 -31 -27 -41 -10 -10 -17 -31 -17 -45 0 -27 0 -27 -79 -27
-58 0 -82 4 -91 15 -7 8 -18 15 -26 15 -7 0 -15 9 -19 19 -3 11 -16 23 -28 27
-12 4 -25 12 -29 18 -4 6 -8 65 -8 132 0 143 -1 141 122 146 55 2 82 8 95 21
14 12 37 17 84 17 61 0 67 2 87 30 16 22 22 43 22 85 l0 55 -125 0 c-102 0
-127 -3 -131 -15 -5 -11 -23 -15 -75 -15 -39 0 -69 -4 -69 -10 0 -5 -13 -10
-29 -10 -16 0 -34 -7 -41 -15 -7 -8 -20 -15 -29 -15 -9 0 -26 -16 -39 -35 -12
-19 -27 -35 -32 -35 -6 0 -10 -59 -10 -153 l0 -154 -38 -12 c-53 -18 -115 0
-157 45 -18 19 -42 34 -54 34 -11 0 -21 3 -21 8 0 4 -15 16 -33 25 -32 18 -67
74 -67 109 0 9 -7 21 -15 28 -8 7 -15 23 -15 36 0 14 -4 32 -9 42 -5 9 -15 44
-22 77 -8 42 -21 68 -40 86 -27 26 -27 27 -34 211 -4 102 -4 221 0 266 l7 80
41 15 c45 16 135 42 180 51 22 5 27 12 27 36 0 17 5 30 10 30 6 0 10 -55 10
-145z m344 54 c10 -52 7 -79 -9 -79 -12 0 -15 13 -15 55 0 60 14 74 24 24z
m851 -59 c0 -33 -4 -50 -12 -50 -14 0 -19 81 -6 93 14 15 18 5 18 -43z m75 31
c0 -25 -14 -71 -21 -71 -5 0 -9 18 -9 40 0 29 4 40 15 40 8 0 15 -4 15 -9z
m-1752 -27 c12 -4 22 -12 22 -19 0 -6 9 -20 20 -30 24 -22 29 -95 6 -95 -25 0
-46 12 -46 26 0 8 -4 14 -10 14 -5 0 -10 7 -10 15 0 10 -11 15 -35 15 -27 0
-35 -4 -35 -18 0 -13 8 -17 33 -17 28 0 32 -3 32 -25 0 -21 6 -26 35 -30 34
-5 35 -6 38 -57 l3 -53 -45 0 c-26 0 -46 -4 -46 -10 0 -5 15 -10 34 -10 25 0
35 -5 39 -19 7 -27 -4 -111 -14 -111 -5 0 -10 -42 -11 -92 l-3 -93 -32 -3
c-40 -4 -93 32 -93 63 0 12 -9 30 -20 40 -11 10 -20 24 -20 32 0 7 -7 13 -15
13 -11 0 -15 11 -15 40 0 29 -4 40 -15 40 -12 0 -15 18 -15 105 0 63 4 105 10
105 6 0 10 11 10 25 0 14 7 28 15 31 8 4 15 15 15 25 0 12 7 19 20 19 11 0 20
3 19 8 -7 49 60 84 129 66z m2180 -151 c-4 -22 -22 -20 -26 1 -2 10 3 16 13
16 10 0 15 -7 13 -17z m-2161 -865 c-3 -10 -2 -18 2 -18 8 0 31 -73 31 -100 0
-11 5 -20 10 -20 6 0 10 -13 10 -30 0 -20 5 -30 15 -30 8 0 15 -4 15 -9 0 -5
15 -31 34 -58 18 -27 43 -67 54 -90 22 -43 20 -52 -21 -66 -11 -4 -21 -16 -24
-27 -3 -11 -13 -20 -22 -20 -24 -1 -71 -46 -71 -70 0 -11 -7 -20 -15 -20 -25
0 -18 -19 44 -114 32 -50 64 -102 71 -116 7 -14 16 -27 19 -30 4 -3 24 -27 46
-55 22 -27 47 -58 56 -67 10 -10 30 -34 45 -55 15 -21 45 -61 66 -89 21 -28
38 -54 38 -58 0 -6 6 -14 35 -49 6 -7 21 -32 33 -57 12 -25 28 -56 36 -70 8
-14 27 -50 41 -80 15 -30 31 -57 35 -60 13 -9 24 -234 11 -226 -6 4 -11 16
-11 27 0 10 -4 19 -10 19 -5 0 -10 7 -10 15 0 8 -6 15 -14 15 -7 0 -19 6 -25
14 -7 8 -26 18 -42 21 -16 4 -29 12 -29 18 0 7 -20 35 -45 64 -25 28 -45 58
-45 66 0 9 -8 18 -18 21 -10 3 -26 20 -36 37 -22 37 -94 122 -138 164 -18 17
-53 52 -78 79 -49 54 -70 74 -184 184 -42 40 -76 76 -76 79 0 4 -13 18 -29 32
-15 14 -36 41 -46 60 -9 19 -27 43 -38 55 -12 11 -35 62 -51 111 -29 92 -50
147 -66 177 -6 10 -10 44 -10 77 0 51 7 72 55 167 34 67 62 111 75 116 11 4
20 13 20 20 0 7 13 19 29 26 16 7 40 24 53 37 16 16 38 25 68 27 57 4 113 -19
107 -44z m2218 -359 c6 -4 35 -21 65 -37 108 -57 300 -202 300 -228 0 -6 15
-24 33 -40 17 -17 39 -38 47 -47 8 -9 31 -30 50 -47 33 -30 35 -34 36 -104 1
-54 -4 -84 -20 -117 -11 -24 -24 -45 -28 -47 -4 -2 -8 -10 -8 -18 0 -8 -9 -24
-20 -36 -12 -13 -27 -30 -35 -39 -8 -9 -15 -21 -15 -27 0 -6 -9 -16 -20 -22
-11 -6 -20 -16 -20 -23 0 -7 -22 -34 -49 -60 -27 -26 -57 -64 -66 -85 -28 -64
-50 -107 -55 -112 -3 -3 -11 -17 -17 -32 -7 -16 -17 -28 -23 -28 -6 0 -9 4 -6
9 3 5 8 42 10 82 2 41 7 82 11 92 4 9 3 17 -3 17 -17 0 -30 -122 -32 -303 0
-39 -4 -56 -11 -52 -6 4 -8 13 -5 21 3 8 2 14 -2 14 -4 0 -17 15 -29 33 -17
25 -23 48 -23 88 0 64 -20 130 -65 208 -17 31 -34 63 -38 71 -4 8 -11 22 -17
30 -5 8 -44 73 -86 145 -42 71 -110 179 -151 239 l-75 110 56 49 c31 27 56 55
56 62 0 7 7 15 15 19 8 3 15 11 15 19 0 7 11 24 24 36 13 13 46 58 73 102 48
78 48 78 83 72 19 -3 40 -9 45 -14z m-318 -456 c57 -79 105 -153 210 -328 110
-181 144 -255 150 -324 5 -57 5 -58 -23 -65 -23 -6 -32 -3 -47 16 -49 62 -113
120 -163 148 -48 28 -164 123 -172 143 -2 4 -8 7 -13 7 -5 0 -27 12 -49 26
-34 22 -48 26 -90 22 -44 -4 -50 -3 -50 13 0 11 5 19 10 19 6 0 10 8 10 18 0
10 9 37 20 60 11 22 20 47 20 55 0 7 3 17 8 21 4 4 7 11 8 14 0 4 3 14 6 22 8
19 18 73 25 125 6 52 48 99 74 84 10 -5 40 -39 66 -76z m-1241 -16 c99 -58
363 -286 437 -376 28 -35 20 -37 -15 -5 -36 34 -95 64 -126 64 -24 0 -89 -47
-159 -116 -30 -30 -61 -54 -69 -54 -8 0 -14 -5 -14 -11 0 -5 -4 -8 -9 -4 -5 3
-18 -6 -29 -19 -10 -14 -34 -27 -53 -31 -33 -6 -35 -5 -62 47 -50 95 -89 161
-149 253 l-59 90 45 13 c27 8 46 19 46 27 0 25 91 115 116 115 13 0 26 5 29
10 8 14 45 12 71 -3z m960 -145 c-8 -33 -38 -108 -65 -167 -28 -59 -51 -110
-51 -113 0 -11 -126 -220 -150 -249 -5 -7 -10 -18 -10 -26 0 -37 -16 -21 -33
34 -10 34 -23 66 -28 73 -14 17 -100 136 -132 183 -35 51 -215 226 -279 273
-27 18 -46 36 -43 38 2 3 10 0 17 -5 14 -11 155 -50 223 -62 23 -4 112 -4 198
-1 118 5 161 10 174 22 10 8 50 30 88 48 39 19 77 41 85 49 13 13 15 12 18
-12 2 -15 -4 -53 -12 -85z m-445 -351 c6 10 9 8 9 -10 0 -20 -2 -21 -15 -11
-8 7 -14 20 -14 29 1 12 2 11 6 -3 4 -15 7 -16 14 -5z m249 -236 c0 -8 -5 -15
-11 -15 -6 0 -8 -8 -4 -19 7 -24 -10 -70 -30 -77 -20 -8 -24 -4 -29 32 -2 16
-7 36 -10 45 -8 18 18 34 37 22 6 -4 8 0 4 10 -5 13 -1 17 18 17 16 0 25 -6
25 -15z m475 -32 l329 -4 62 -52 c34 -29 64 -60 67 -69 3 -11 15 -18 30 -18
28 0 57 -23 57 -46 0 -8 7 -17 15 -20 19 -8 41 -54 50 -103 4 -22 13 -45 21
-52 8 -6 14 -21 14 -33 0 -12 5 -27 10 -32 9 -9 16 -40 23 -112 1 -12 8 -27
16 -31 7 -5 10 -14 6 -20 -4 -7 -3 -17 2 -24 15 -19 35 -96 28 -107 -3 -6 -1
-10 4 -10 6 0 11 -9 11 -20 0 -11 7 -23 16 -27 10 -4 15 -17 14 -42 -4 -83 0
-142 10 -136 6 4 10 -11 10 -37 0 -25 7 -53 15 -64 8 -10 15 -34 15 -51 l0
-33 -59 0 c-50 0 -59 -3 -64 -20 -5 -19 -14 -20 -159 -20 -85 0 -158 4 -164 9
-5 5 -130 5 -294 1 -157 -5 -322 -9 -367 -9 l-83 -1 0 180 c0 113 -4 180 -10
180 -5 0 -10 25 -10 55 0 30 -4 63 -9 73 -5 9 -15 103 -21 207 -7 105 -16 192
-21 195 -4 3 -11 55 -15 115 -3 61 -7 112 -7 115 -6 38 54 83 98 74 17 -3 178
-8 360 -11z m-602 -130 c-12 -133 -12 -138 19 -141 35 -4 37 -17 41 -329 2
-157 7 -246 14 -255 7 -8 12 -71 12 -169 l2 -156 -83 -6 c-46 -4 -183 -7 -305
-7 l-223 0 0 49 c0 28 -4 52 -9 55 -5 4 -12 41 -16 84 -3 42 -10 86 -15 97
-14 32 -29 141 -23 164 3 12 1 27 -5 34 -6 7 -14 36 -18 65 -4 29 -11 55 -15
58 -5 3 -9 13 -9 22 0 10 -9 35 -20 57 -11 22 -20 50 -20 62 0 13 -5 23 -10
23 -6 0 -9 15 -6 38 2 20 7 100 11 177 4 77 9 143 12 148 2 4 155 7 338 7
l335 0 -7 -77z"/>
<path d="M2946 3895 c-9 -108 -16 -125 -53 -125 -21 0 -22 -2 -13 -21 14 -26
37 -21 62 11 16 22 18 41 16 130 l-3 105 -9 -100z"/>
<path d="M2660 3420 c0 -6 68 -10 185 -10 l185 0 0 -25 c0 -16 6 -25 15 -25
21 0 19 26 -5 50 -19 19 -33 20 -200 20 -113 0 -180 -4 -180 -10z"/>
<path d="M2580 3400 c0 -5 5 -10 10 -10 6 0 10 5 10 10 0 6 -4 10 -10 10 -5 0
-10 -4 -10 -10z"/>
<path d="M3090 3400 c0 -5 5 -10 10 -10 6 0 10 5 10 10 0 6 -4 10 -10 10 -5 0
-10 -4 -10 -10z"/>
<path d="M2632 3388 c6 -18 28 -21 28 -4 0 9 -7 16 -16 16 -9 0 -14 -5 -12
-12z"/>
<path d="M2670 3324 c36 -7 340 -10 340 -2 0 4 -80 7 -177 7 -98 -1 -171 -3
-163 -5z"/>
<path d="M1450 3979 c0 -84 4 -128 10 -124 6 4 10 58 10 131 0 76 -4 124 -10
124 -6 0 -10 -50 -10 -131z"/>
<path d="M1490 4040 c0 -5 5 -10 10 -10 6 0 10 5 10 10 0 6 -4 10 -10 10 -5 0
-10 -4 -10 -10z"/>
<path d="M1476 3831 c-8 -12 3 -41 15 -41 12 0 12 37 0 45 -5 3 -12 1 -15 -4z"/>
<path d="M1490 3772 c0 -12 19 -26 26 -19 2 2 -2 10 -11 17 -9 8 -15 8 -15 2z"/>
<path d="M3985 1998 c-8 -28 -15 -56 -15 -62 0 -19 19 8 23 34 3 14 10 37 16
53 6 16 7 27 1 27 -5 0 -16 -23 -25 -52z"/>
<path d="M5051 1254 c8 -9 14 -22 14 -28 0 -22 20 -20 23 3 4 24 -11 41 -37
41 -11 0 -11 -3 0 -16z"/>
<path d="M350 1220 c0 -5 4 -10 9 -10 5 0 12 -24 16 -52 6 -49 31 -106 41 -96
2 3 -3 27 -11 54 -8 27 -15 57 -15 67 0 10 -6 25 -14 33 -17 16 -26 18 -26 4z"/>
</g>
</svg>
